<?xml version="1.0" standalone="no"?>
<!DOCTYPE svg PUBLIC "-//W3C//DTD SVG 20010904//EN"
 "http://www.w3.org/TR/2001/REC-SVG-20010904/DTD/svg10.dtd">
<svg version="1.0" xmlns="http://www.w3.org/2000/svg"
 width="234.000000pt" height="234.000000pt" viewBox="0 0 234.000000 234.000000"
 preserveAspectRatio="xMidYMid meet">
<metadata>
Created by potrace 1.14, written by Peter Selinger 2001-2017
</metadata>
<g transform="translate(0.000000,234.000000) scale(0.100000,-0.100000)"
fill="#000000" stroke="none">
<path d="M0 1170 l0 -1170 638 0 c508 1 649 4 695 15 50 12 59 12 64 -1 4 -12
78 -14 474 -14 l469 0 0 1170 0 1170 -1170 0 -1170 0 0 -1170z m1740 850 c0
-5 -2 -10 -4 -10 -3 0 -8 5 -11 10 -3 6 -1 10 4 10 6 0 11 -4 11 -10z m-335
-80 c7 -12 -29 -12 -65 0 -21 7 -19 8 17 9 23 1 45 -3 48 -9z m75 -22 c22 -7
40 -16 40 -19 0 -7 -89 17 -98 26 -9 9 17 5 58 -7z m-240 -38 c0 -5 -18 -11
-40 -11 -22 -1 -45 -2 -52 -3 -6 -1 -13 5 -15 12 -4 9 11 12 51 12 31 0 56 -4
56 -10z m-283 -222 c35 -26 67 -48 71 -48 4 0 13 9 20 20 12 19 13 19 49 3 21
-10 49 -27 63 -39 78 -69 155 -98 198 -75 9 5 25 12 35 15 18 6 24 51 7 61
-23 14 -8 23 30 18 37 -5 40 -4 40 19 0 13 -5 29 -11 35 -8 8 0 17 30 31 40
20 42 20 59 2 14 -14 32 -18 98 -17 100 1 111 -5 83 -42 -26 -36 -22 -65 11
-69 14 -2 36 -11 49 -21 23 -17 23 -19 7 -44 -10 -14 -19 -42 -22 -62 l-4 -37
36 7 c42 7 62 -10 40 -35 -8 -8 -16 -24 -18 -35 -4 -22 -31 -24 -163 -11 -165
16 -372 -51 -361 -117 2 -19 8 -21 37 -19 19 2 40 9 47 14 7 6 15 8 19 5 3 -4
13 -1 21 6 11 8 68 12 201 12 148 0 188 3 197 14 24 31 31 2 17 -71 -22 -118
-23 -135 -7 -148 11 -10 17 -10 29 0 12 10 16 9 21 -5 4 -9 2 -21 -5 -28 -6
-6 -11 -23 -11 -38 0 -49 -17 -76 -69 -108 -62 -37 -72 -39 -41 -6 l23 25 -21
42 c-12 24 -23 50 -26 59 -6 23 -50 35 -182 49 -111 12 -112 12 -144 -11 -18
-14 -42 -47 -56 -76 l-23 -53 -50 0 c-42 0 -52 -4 -63 -22 -7 -13 -13 -32 -13
-43 0 -11 -8 -21 -18 -23 -27 -5 -69 7 -62 18 3 6 -2 23 -12 40 -16 28 -22 30
-74 30 l-57 0 -20 49 c-29 67 -81 105 -133 98 -22 -3 -37 -1 -33 4 12 20 -28
21 -47 0 -14 -15 -32 -21 -64 -21 l-44 0 -3 88 c-2 48 -1 100 1 116 l4 29 131
-5 c73 -2 139 -8 147 -13 18 -12 34 -16 87 -22 39 -5 42 -3 42 19 0 17 -10 29
-32 42 -18 9 -46 24 -63 34 -34 18 -171 40 -258 41 l-57 1 5 102 c2 56 9 104
14 107 5 3 7 21 5 38 -3 28 1 35 27 49 17 9 41 13 54 10 13 -3 36 -2 50 4 23
9 26 14 20 39 l-6 29 42 -5 c29 -4 61 -21 106 -55z m-211 -713 c-17 -68 -23
-75 -69 -75 -24 0 -48 -5 -55 -12 -21 -21 -26 21 -6 57 20 37 49 53 103 54 30
1 33 -1 27 -24z m929 5 c14 -11 49 -79 44 -84 -2 -2 -31 -1 -63 2 -58 7 -59 8
-72 46 -8 21 -11 43 -8 48 7 10 83 1 99 -12z m-827 -2 c5 -7 13 -23 16 -35 6
-19 4 -23 -17 -23 -25 0 -54 40 -43 59 9 15 31 14 44 -1z m694 -23 c9 -20 9
-28 -1 -38 -17 -17 -45 4 -49 37 -3 21 1 26 18 26 12 0 25 -10 32 -25z m-119
-26 c-6 -21 -29 -36 -39 -26 -9 9 16 47 30 47 9 0 12 -7 9 -21z m-493 -15 c0
-8 -4 -14 -10 -14 -5 0 -10 9 -10 21 0 11 5 17 10 14 6 -3 10 -13 10 -21z
m985 -98 c-4 -19 -8 -47 -10 -63 -5 -34 -20 -111 -34 -173 -20 -90 -37 -115
-113 -171 -40 -29 -75 -56 -78 -59 -8 -8 -170 -105 -210 -125 -52 -27 -222
-85 -247 -85 -34 0 -153 70 -273 161 -73 55 -214 194 -258 253 -28 36 -29 82
-3 96 25 13 301 13 336 0 50 -19 113 37 106 93 -2 15 4 18 36 15 33 -3 38 -6
39 -28 2 -45 4 -48 37 -69 28 -17 40 -19 68 -11 44 13 290 13 324 0 51 -19 99
23 104 91 0 10 18 26 39 37 20 11 59 31 86 46 27 14 51 26 53 26 2 0 1 -15 -2
-34z m-1177 -3 c3 -17 -2 -23 -16 -23 -11 0 -27 -3 -36 -6 -12 -5 -16 0 -16
18 0 32 9 40 40 36 17 -2 26 -10 28 -25z m283 17 c13 -8 19 -20 18 -43 -2 -30
-2 -30 -6 -4 -5 32 -18 36 -26 7 -4 -16 -14 -20 -46 -20 -35 0 -43 4 -51 26
-6 14 -8 30 -4 35 7 12 91 11 115 -1z m397 -9 c3 -10 -1 -12 -19 -8 -13 4 -35
7 -49 8 -23 1 -23 2 5 9 40 10 57 8 63 -9z m239 -21 c1 -19 0 -30 -3 -24 -3 8
-20 10 -44 7 -43 -6 -49 2 -29 38 8 15 19 19 42 17 29 -3 32 -7 34 -38z m-342
-20 c0 -27 -3 -50 -6 -50 -8 0 -17 89 -10 96 12 12 16 0 16 -46z m-610 -40 c3
-5 1 -10 -4 -10 -6 0 -11 5 -11 10 0 6 2 10 4 10 3 0 8 -4 11 -10z m325 -2 c0
-5 -39 -8 -87 -8 -50 0 -82 4 -75 9 16 10 162 9 162 -1z m410 2 c18 -6 6 -8
-43 -9 -43 -1 -66 3 -62 9 7 12 69 12 105 0z m200 0 c0 -5 -8 -10 -17 -10 -15
0 -16 2 -3 10 19 12 20 12 20 0z"/>
<path d="M1134 574 c-11 -43 7 -78 40 -82 28 -4 29 -3 23 35 -4 21 -7 46 -7
56 0 11 -8 17 -25 17 -18 0 -26 -7 -31 -26z"/>
<path d="M1185 383 c-89 -10 -95 -13 -95 -39 0 -24 2 -25 68 -23 83 3 112 14
112 46 0 24 -8 26 -85 16z"/>
<path d="M1148 303 c-10 -2 -18 -13 -18 -24 0 -18 6 -20 48 -17 40 3 47 6 50
26 3 19 -1 22 -30 21 -18 -1 -41 -3 -50 -6z"/>
</g>
</svg>
